<svg width="34" height="34" viewBox="0 0 34 34" fill="none" xmlns="http://www.w3.org/2000/svg">
<g clip-path="url(#clip0_101_58)">
<path d="M12.4476 29.5047C13.7207 29.5047 14.7527 28.4726 14.7527 27.1996C14.7527 25.9265 13.7207 24.8945 12.4476 24.8945C11.1746 24.8945 10.1426 25.9265 10.1426 27.1996C10.1426 28.4726 11.1746 29.5047 12.4476 29.5047Z" fill="black"/>
<path d="M24.434 29.5047C25.707 29.5047 26.739 28.4726 26.739 27.1996C26.739 25.9265 25.707 24.8945 24.434 24.8945C23.1609 24.8945 22.1289 25.9265 22.1289 27.1996C22.1289 28.4726 23.1609 29.5047 24.434 29.5047Z" fill="black"/>
<path d="M27.6629 12.4472C25.8288 12.4472 24.0699 11.7187 22.7731 10.4218C21.4762 9.12497 20.7477 7.36606 20.7477 5.53204H8.49394L8.07902 4.21354C8.03345 4.07197 7.9543 3.94353 7.84834 3.83917C7.74237 3.73481 7.61274 3.65763 7.47049 3.61422L3.69018 2.45247C3.57394 2.41675 3.45181 2.40428 3.33075 2.41576C3.20969 2.42724 3.09207 2.46246 2.98462 2.51939C2.76762 2.63438 2.60518 2.83086 2.53304 3.06562C2.4609 3.30037 2.48497 3.55417 2.59996 3.77118C2.71495 3.98818 2.91143 4.15062 3.14619 4.22276L6.45626 5.23699L10.6791 18.5787L9.17624 19.8142L9.05637 19.9341C8.6847 20.3645 8.47413 20.9106 8.46067 21.4791C8.44722 22.0476 8.63172 22.6031 8.98261 23.0505C9.23392 23.3561 9.55326 23.5987 9.91509 23.7588C10.2769 23.9189 10.6712 23.9921 11.0664 23.9726H26.455C26.6995 23.9726 26.9341 23.8754 27.107 23.7025C27.2799 23.5296 27.377 23.2951 27.377 23.0505C27.377 22.806 27.2799 22.5715 27.107 22.3986C26.9341 22.2256 26.6995 22.1285 26.455 22.1285H10.9189C10.8127 22.1249 10.7092 22.0939 10.6185 22.0387C10.5278 21.9834 10.4529 21.9056 10.401 21.8129C10.3491 21.7203 10.3219 21.6157 10.3222 21.5095C10.3225 21.4033 10.3501 21.2989 10.4025 21.2065L12.6246 19.3624H26.8515C27.0621 19.3686 27.2685 19.3024 27.4362 19.1749C27.604 19.0474 27.723 18.8663 27.7735 18.6617L29.3502 12.2075C28.7998 12.3568 28.233 12.4373 27.6629 12.4472Z" fill="black"/>
<path d="M27.6609 10.1421C30.207 10.1421 32.271 8.07811 32.271 5.53201C32.271 2.9859 30.207 0.921875 27.6609 0.921875C25.1148 0.921875 23.0508 2.9859 23.0508 5.53201C23.0508 8.07811 25.1148 10.1421 27.6609 10.1421Z" fill="#FC656D"/>
</g>
<defs>
<clipPath id="clip0_101_58">
<rect width="33.1929" height="33.1929" fill="white"/>
</clipPath>
</defs>
</svg>
