<svg width="19" height="19" viewBox="0 0 19 19" fill="none" xmlns="http://www.w3.org/2000/svg">
<g opacity="0.3" clip-path="url(#clip0_227_12)">
<path d="M12.5945 9.59721L18.9999 13.6466V5.37683L12.5945 9.59721Z" fill="black"/>
<path d="M0 5.37683V13.6466L6.40537 9.59721L0 5.37683Z" fill="black"/>
<path d="M17.8123 2.96875H1.18728C0.594713 2.96875 0.124463 3.4105 0.0354004 3.97931L9.49977 10.2149L18.9641 3.97931C18.8751 3.4105 18.4048 2.96875 17.8123 2.96875Z" fill="black"/>
<path d="M11.507 10.3145L9.82665 11.4213C9.7269 11.4866 9.61409 11.5187 9.50009 11.5187C9.38609 11.5187 9.27327 11.4866 9.17352 11.4213L7.49321 10.3134L0.0380859 15.0289C0.129523 15.593 0.597398 16.0312 1.18759 16.0312H17.8126C18.4028 16.0312 18.8707 15.593 18.9621 15.0289L11.507 10.3145Z" fill="black"/>
</g>
<defs>
<clipPath id="clip0_227_12">
<rect width="19" height="19" fill="white"/>
</clipPath>
</defs>
</svg>
