<svg width="15" height="13" viewBox="0 0 15 13" fill="none" xmlns="http://www.w3.org/2000/svg">
<path d="M4.87678 3.97509L6.75534 0.253238C6.79142 0.178365 6.8478 0.115127 6.91805 0.0707232C6.98831 0.0263192 7.06962 0.0025339 7.15273 0.0020752C7.31014 0.0020752 7.46755 0.0855094 7.5527 0.253238L9.43126 3.97509L13.6443 4.57376C13.7493 4.59026 13.8454 4.64249 13.9164 4.72162C13.9873 4.80075 14.0289 4.90195 14.0339 5.00813C14.0399 5.07882 14.0299 5.14996 14.0046 5.21623C13.9792 5.28251 13.9393 5.34221 13.8877 5.3909L10.8574 8.27755L11.5713 12.346C11.6384 12.7271 11.2617 13.0256 10.9296 12.8553L7.15273 10.9148L3.37755 12.8553C3.33806 12.8758 3.29573 12.8902 3.25197 12.8983C2.9578 12.9499 2.67739 12.6798 2.73588 12.346L3.4498 8.27755L0.420363 5.3909C0.373266 5.34634 0.33583 5.29258 0.31038 5.23294C0.28493 5.17331 0.272008 5.10909 0.272417 5.04426C0.272462 4.9526 0.297759 4.86272 0.34553 4.78449C0.379419 4.72778 0.425609 4.6794 0.480692 4.64293C0.535774 4.60646 0.598344 4.58282 0.663784 4.57376L4.87678 3.97509ZM7.15273 9.91699C7.22216 9.9167 7.29063 9.93323 7.35229 9.96516L10.5228 11.5943L9.92584 8.19067C9.91175 8.1124 9.91709 8.03186 9.94138 7.95612C9.96568 7.88039 10.0082 7.81177 10.0652 7.7563L12.5656 5.37369L9.08032 4.87825C9.00815 4.86735 8.9397 4.83912 8.88082 4.79598C8.82195 4.75283 8.77441 4.69606 8.74228 4.63053L7.15359 1.48411L7.15273 1.48669V9.91613V9.91699Z" fill="#FFCB10"/>
</svg>
