<svg width="18" height="18" viewBox="0 0 18 18" fill="none" xmlns="http://www.w3.org/2000/svg">
<path d="M16.5 9.50004C16.4342 9.50042 16.369 9.4878 16.3081 9.46292C16.2471 9.43804 16.1917 9.40138 16.145 9.35503L9.00001 2.20503L1.85501 9.35503C1.75936 9.43695 1.63633 9.47975 1.51049 9.47489C1.38465 9.47003 1.26528 9.41786 1.17623 9.32882C1.08718 9.23977 1.03502 9.1204 1.03016 8.99456C1.0253 8.86872 1.0681 8.74569 1.15001 8.65003L8.65001 1.15004C8.74369 1.05691 8.87042 1.00464 9.00251 1.00464C9.13461 1.00464 9.26133 1.05691 9.35501 1.15004L16.855 8.65003C16.9238 8.72023 16.9704 8.80914 16.989 8.90566C17.0075 9.00219 16.9972 9.10204 16.9593 9.19273C16.9214 9.28343 16.8577 9.36095 16.776 9.41561C16.6943 9.47026 16.5983 9.49963 16.5 9.50004Z" fill="white"/>
<path d="M9 3.89502L3 9.91502V16C3 16.2652 3.10536 16.5196 3.29289 16.7071C3.48043 16.8947 3.73478 17 4 17H7.5V12H10.5V17H14C14.2652 17 14.5196 16.8947 14.7071 16.7071C14.8946 16.5196 15 16.2652 15 16V9.88002L9 3.89502Z" fill="white"/>
</svg>
