<svg width="14" height="15" viewBox="0 0 14 15" fill="none" xmlns="http://www.w3.org/2000/svg">
<path d="M1.61955 8.9599C1.73955 8.9599 2.33955 8.9599 3.38955 8.9599C4.43955 8.9599 5.24955 8.9299 5.78955 8.9299V13.3699C5.78955 14.3299 6.20955 14.8099 7.04955 14.8099C8.03955 14.8699 8.54955 14.4499 8.54955 13.5799C8.54955 13.4599 8.51955 13.0699 8.51955 12.4099C8.51955 11.7499 8.51955 11.1799 8.51955 10.6399V8.9299H9.86955H11.5196H12.5096C13.4696 8.9299 13.9796 8.4499 13.9796 7.5499C13.9796 6.6499 13.5296 6.1999 12.6296 6.1999C12.3896 6.1999 11.7596 6.2299 10.7696 6.2299C9.74955 6.2299 9.02955 6.2299 8.54955 6.2299V1.6699C8.54955 0.649902 8.09955 0.139902 7.19955 0.139902C6.77955 0.139902 6.44955 0.259902 6.17955 0.499902C5.90955 0.739902 5.78955 1.0699 5.78955 1.4899V6.1699H1.91955C0.839551 6.1699 0.299551 6.5899 0.299551 7.3999C0.239551 7.8799 0.329551 8.2399 0.569551 8.5399C0.809551 8.8399 1.13955 8.9599 1.61955 8.9599Z" fill="black"/>
</svg>
