<svg width="17" height="18" viewBox="0 0 17 18" fill="none" xmlns="http://www.w3.org/2000/svg">
<path d="M13.8876 1.06584L1.32693 7.1953C0.797755 7.45351 0.46543 7.97973 0.459578 8.5685C0.453772 9.15731 0.775628 9.69 1.29957 9.95864L5.43749 12.0804L9.16178 7.86383C9.33315 7.6698 9.62941 7.65141 9.82346 7.8228C10.0175 7.99418 10.0359 8.29044 9.86448 8.48449L6.1402 12.7011L8.75679 16.5452C9.08811 17.032 9.65645 17.2856 10.24 17.2071C10.8248 17.1284 11.305 16.7327 11.4956 16.1767L16.0267 2.9552C16.233 2.35324 16.0649 1.71761 15.5879 1.29635C15.111 0.875089 14.4594 0.786719 13.8876 1.06584Z" fill="white"/>
</svg>
