<svg width="13" height="14" viewBox="0 0 13 14" fill="none" xmlns="http://www.w3.org/2000/svg">
<path d="M1.1875 13.5249C1.1875 13.5249 0.125 13.5249 0.125 12.4624C0.125 11.3999 1.1875 8.2124 6.5 8.2124C11.8125 8.2124 12.875 11.3999 12.875 12.4624C12.875 13.5249 11.8125 13.5249 11.8125 13.5249H1.1875ZM6.5 7.1499C7.34538 7.1499 8.15613 6.81408 8.7539 6.21631C9.35168 5.61853 9.6875 4.80778 9.6875 3.9624C9.6875 3.11702 9.35168 2.30627 8.7539 1.7085C8.15613 1.11073 7.34538 0.774902 6.5 0.774902C5.65462 0.774902 4.84387 1.11073 4.2461 1.7085C3.64832 2.30627 3.3125 3.11702 3.3125 3.9624C3.3125 4.80778 3.64832 5.61853 4.2461 6.21631C4.84387 6.81408 5.65462 7.1499 6.5 7.1499Z" fill="#FC656D"/>
</svg>
